<svg xmlns="http://www.w3.org/2000/svg" width="1000" height="1000" fill="none"><path fill="#7A6746" fill-rule="evenodd" d="M475.983 1000h48.034l.001-168.977a331.709 331.709 0 0 0 41.514-5.613l43.092 160.822 46.398-12.433-43.201-161.229a329.987 329.987 0 0 0 30.99-12.904l84.148 145.749 41.6-24.018-84.015-145.517a333.12 333.12 0 0 0 33.054-25.285l121.799 121.799 33.965-33.966-121.868-121.869a333.067 333.067 0 0 0 23.883-31.267l148.204 85.565 24.017-41.599-148.322-85.634a329.572 329.572 0 0 0 13.881-33.462l161.31 43.223 12.433-46.398-161.15-43.18a331.9 331.9 0 0 0 5.272-39.79H1000v-48.034H831.022a332.222 332.222 0 0 0-4.809-37.363l160.019-42.877-12.433-46.398-159.831 42.827a329.8 329.8 0 0 0-15.956-38.395l147.403-85.103-24.018-41.6-147.647 85.245a333.063 333.063 0 0 0-21.136-27.569l119.78-119.78-33.966-33.966-119.535 119.535a333.319 333.319 0 0 0-31.547-24.519l83.396-144.447-41.599-24.018-83.285 144.255a329.668 329.668 0 0 0-34.242-14.45l44.583-166.386L609.801 8.54l-44.482 166.01a331.992 331.992 0 0 0-41.301-5.57V0h-48.035v168.979a332.198 332.198 0 0 0-35.419 4.452L396.203 7.873l-46.398 12.433 44.236 165.092a329.764 329.764 0 0 0-40.707 16.809L268.559 55.372 226.96 79.389l84.952 147.142a333.243 333.243 0 0 0-28.47 21.976L166.256 131.321l-33.966 33.966 117.116 117.116a333.324 333.324 0 0 0-23.386 30.251L81.573 229.258l-24.018 41.599 144.254 83.285a329.899 329.899 0 0 0-15.847 38.234L20.974 348.168 8.54 394.566l165.207 44.267a332.05 332.05 0 0 0-4.77 37.15H0v48.034h168.978c.96 13.43 2.72 26.638 5.231 39.578L7.873 608.164l12.433 46.398 166.465-44.604a329.884 329.884 0 0 0 13.777 33.299L55.372 727.074l24.017 41.6 145.007-83.72a333.06 333.06 0 0 0 26.142 33.94L131.321 838.111l33.966 33.966 119.462-119.462a333.034 333.034 0 0 0 29.959 22.762l-85.565 148.204 41.599 24.017 85.634-148.322a329.608 329.608 0 0 0 37.459 15.259l-42.853 159.932L397.38 986.9l42.97-160.367a332.209 332.209 0 0 0 35.633 4.49V1000ZM500 216.158c-70.188 0-134.427 25.476-183.973 67.686h367.946c-49.546-42.21-113.784-67.686-183.973-67.686ZM216.157 500.001c0-70.189 25.476-134.427 67.686-183.973v367.946c-42.21-49.546-67.686-113.784-67.686-183.973ZM500 783.844c-70.188 0-134.427-25.476-183.973-67.686h367.946c-49.546 42.21-113.784 67.686-183.973 67.686Zm283.843-283.843c0 70.189-25.476 134.427-67.686 183.973V316.028c42.21 49.546 67.686 113.784 67.686 183.973ZM668.122 331.879H331.878v336.244h336.244V331.879Z" clip-rule="evenodd"/></svg>